<svg width="229" height="44" viewBox="0 0 229 44" fill="none" xmlns="http://www.w3.org/2000/svg">
<path d="M2.74807 33.572C2.8495 31.2453 4.65843 26.0427 11.0827 23.8464" stroke="#3D332E" stroke-width="2.68373"/>
<path d="M48.982 28.8034C51.1479 29.6594 55.474 33.0687 55.451 39.858" stroke="#3D332E" stroke-width="2.68373"/>
<path d="M39.4426 34.8778C36.7221 37.1286 30.0949 40.075 25.3502 33.8538" stroke="#3D332E" stroke-width="2.68373"/>
<mask id="path-4-inside-1_2152:7858" fill="white">
<path fill-rule="evenodd" clip-rule="evenodd" d="M41.8248 32.2047C45.2832 32.2047 48.0868 29.4011 48.0868 25.9427C48.0868 22.4843 45.2832 19.6807 41.8248 19.6807C38.3664 19.6807 35.5627 22.4843 35.5627 25.9427C35.5627 29.4011 38.3664 32.2047 41.8248 32.2047ZM41.8218 29.5209C43.7981 29.5209 45.4001 27.9188 45.4001 25.9426C45.4001 23.9664 43.7981 22.3643 41.8218 22.3643C39.8456 22.3643 38.2435 23.9664 38.2435 25.9426C38.2435 27.9188 39.8456 29.5209 41.8218 29.5209Z"/>
</mask>
<path fill-rule="evenodd" clip-rule="evenodd" d="M41.8248 32.2047C45.2832 32.2047 48.0868 29.4011 48.0868 25.9427C48.0868 22.4843 45.2832 19.6807 41.8248 19.6807C38.3664 19.6807 35.5627 22.4843 35.5627 25.9427C35.5627 29.4011 38.3664 32.2047 41.8248 32.2047ZM41.8218 29.5209C43.7981 29.5209 45.4001 27.9188 45.4001 25.9426C45.4001 23.9664 43.7981 22.3643 41.8218 22.3643C39.8456 22.3643 38.2435 23.9664 38.2435 25.9426C38.2435 27.9188 39.8456 29.5209 41.8218 29.5209Z" fill="#3D332E"/>
<path d="M47.1922 25.9427C47.1922 28.9071 44.7891 31.3102 41.8248 31.3102V33.0993C45.7773 33.0993 48.9814 29.8952 48.9814 25.9427H47.1922ZM41.8248 20.5752C44.7891 20.5752 47.1922 22.9783 47.1922 25.9427H48.9814C48.9814 21.9902 45.7773 18.7861 41.8248 18.7861V20.5752ZM36.4573 25.9427C36.4573 22.9783 38.8604 20.5752 41.8248 20.5752V18.7861C37.8723 18.7861 34.6682 21.9902 34.6682 25.9427H36.4573ZM41.8248 31.3102C38.8604 31.3102 36.4573 28.9071 36.4573 25.9427H34.6682C34.6682 29.8952 37.8723 33.0993 41.8248 33.0993V31.3102ZM44.5056 25.9426C44.5056 27.4248 43.304 28.6263 41.8218 28.6263V30.4155C44.2921 30.4155 46.2947 28.4129 46.2947 25.9426H44.5056ZM41.8218 23.2589C43.304 23.2589 44.5056 24.4604 44.5056 25.9426H46.2947C46.2947 23.4723 44.2921 21.4697 41.8218 21.4697V23.2589ZM39.1381 25.9426C39.1381 24.4604 40.3396 23.2589 41.8218 23.2589V21.4697C39.3515 21.4697 37.3489 23.4723 37.3489 25.9426H39.1381ZM41.8218 28.6263C40.3396 28.6263 39.1381 27.4248 39.1381 25.9426H37.3489C37.3489 28.4129 39.3515 30.4155 41.8218 30.4155V28.6263Z" fill="#3D332E" mask="url(#path-4-inside-1_2152:7858)"/>
<mask id="path-6-inside-2_2152:7858" fill="white">
<path fill-rule="evenodd" clip-rule="evenodd" d="M18.1231 24.4052L35.4901 19.7517C34.8592 14.1743 30.1254 9.84033 24.3793 9.84033C18.2036 9.84033 13.1971 14.8468 13.1971 21.0225C13.1971 21.5343 13.2315 22.038 13.2981 22.5316H13.2963C13.3036 22.5811 13.3112 22.6307 13.3192 22.6801C13.4647 23.6599 13.7374 24.5983 14.1199 25.4778L14.1249 25.4765C15.3947 28.4519 17.8735 30.8471 21.248 31.7577C27.51 33.5469 34.2194 29.5213 35.2991 23.4324C35.3347 23.2315 35.3909 22.9968 35.4421 22.7827C35.5055 22.5181 35.5612 22.2852 35.5612 22.1869L32.075 22.1869C32.0475 22.3128 32.0168 22.4387 31.9829 22.5645C30.8567 26.7382 27.2551 29.5803 23.0813 28.4541C20.8393 27.8492 19.0887 26.3294 18.1231 24.4052Z"/>
</mask>
<path fill-rule="evenodd" clip-rule="evenodd" d="M18.1231 24.4052L35.4901 19.7517C34.8592 14.1743 30.1254 9.84033 24.3793 9.84033C18.2036 9.84033 13.1971 14.8468 13.1971 21.0225C13.1971 21.5343 13.2315 22.038 13.2981 22.5316H13.2963C13.3036 22.5811 13.3112 22.6307 13.3192 22.6801C13.4647 23.6599 13.7374 24.5983 14.1199 25.4778L14.1249 25.4765C15.3947 28.4519 17.8735 30.8471 21.248 31.7577C27.51 33.5469 34.2194 29.5213 35.2991 23.4324C35.3347 23.2315 35.3909 22.9968 35.4421 22.7827C35.5055 22.5181 35.5612 22.2852 35.5612 22.1869L32.075 22.1869C32.0475 22.3128 32.0168 22.4387 31.9829 22.5645C30.8567 26.7382 27.2551 29.5803 23.0813 28.4541C20.8393 27.8492 19.0887 26.3294 18.1231 24.4052Z" fill="#3D332E"/>
<path d="M35.4901 19.7517L35.7217 20.6158L36.4656 20.4165L36.379 19.6511L35.4901 19.7517ZM18.1231 24.4052L17.8916 23.5411L16.8312 23.8252L17.3236 24.8064L18.1231 24.4052ZM13.2981 22.5316V23.4261H14.3215L14.1846 22.412L13.2981 22.5316ZM13.2963 22.5316V21.637H12.2599L12.4113 22.6623L13.2963 22.5316ZM13.3192 22.6801L14.2041 22.5486L14.2024 22.5384L13.3192 22.6801ZM14.1199 25.4778L13.2996 25.8346L13.607 26.5414L14.3515 26.3419L14.1199 25.4778ZM14.1249 25.4765L14.9477 25.1254L14.643 24.4115L13.8933 24.6124L14.1249 25.4765ZM21.248 31.7577L21.4938 30.8974L21.481 30.894L21.248 31.7577ZM35.2991 23.4324L34.4183 23.2762L34.4183 23.2762L35.2991 23.4324ZM35.4421 22.7827L36.3121 22.9909L35.4421 22.7827ZM35.5612 22.1869L36.4558 22.1869L36.4558 21.2923L35.5612 21.2923L35.5612 22.1869ZM32.075 22.1869L32.075 21.2923L31.3545 21.2923L31.2009 21.9963L32.075 22.1869ZM31.9829 22.5645L31.1192 22.3314L31.1192 22.3314L31.9829 22.5645ZM23.0813 28.4541L22.8483 29.3178L22.8483 29.3178L23.0813 28.4541ZM35.2586 18.8876L17.8916 23.5411L18.3547 25.2693L35.7217 20.6158L35.2586 18.8876ZM24.3793 10.7349C29.6651 10.7349 34.0209 14.722 34.6012 19.8523L36.379 19.6511C35.6975 13.6266 30.5857 8.94576 24.3793 8.94576V10.7349ZM14.0917 21.0225C14.0917 15.3408 18.6976 10.7349 24.3793 10.7349V8.94576C17.7095 8.94576 12.3026 14.3527 12.3026 21.0225H14.0917ZM14.1846 22.412C14.1234 21.958 14.0917 21.4942 14.0917 21.0225H12.3026C12.3026 21.5744 12.3396 22.1181 12.4116 22.6512L14.1846 22.412ZM13.2963 23.4261H13.2981V21.637H13.2963V23.4261ZM14.2024 22.5384C14.1951 22.4926 14.188 22.4468 14.1812 22.4009L12.4113 22.6623C12.4192 22.7155 12.4273 22.7687 12.4359 22.8218L14.2024 22.5384ZM14.9403 25.1211C14.5886 24.3124 14.3379 23.4497 14.204 22.5486L12.4343 22.8116C12.5916 23.8701 12.8862 24.8841 13.2996 25.8346L14.9403 25.1211ZM13.8933 24.6124L13.8884 24.6137L14.3515 26.3419L14.3565 26.3406L13.8933 24.6124ZM21.481 30.894C18.3955 30.0614 16.1201 27.8726 14.9477 25.1254L13.3021 25.8276C14.6693 29.0312 17.3514 31.6328 21.0149 32.6214L21.481 30.894ZM34.4183 23.2762C33.4378 28.805 27.2835 32.5518 21.4938 30.8975L21.0022 32.6178C27.7365 34.5419 35.0009 30.2376 36.1799 23.5886L34.4183 23.2762ZM34.5721 22.5745C34.5226 22.7816 34.4595 23.044 34.4183 23.2762L36.1799 23.5886C36.21 23.4191 36.2593 23.2119 36.3121 22.9909L34.5721 22.5745ZM34.6666 22.1869C34.6666 22.1415 34.6717 22.1203 34.6677 22.1462C34.6649 22.1641 34.6594 22.1937 34.6501 22.2378C34.6313 22.327 34.6047 22.4384 34.5721 22.5745L36.3121 22.9909C36.3429 22.8624 36.3759 22.725 36.4007 22.6071C36.4197 22.5172 36.4558 22.3443 36.4558 22.1869L34.6666 22.1869ZM32.075 23.0814L35.5612 23.0815L35.5612 21.2923L32.075 21.2923L32.075 23.0814ZM32.8466 22.7975C32.8843 22.6577 32.9185 22.5176 32.949 22.3775L31.2009 21.9963C31.1766 22.1079 31.1494 22.2197 31.1192 22.3314L32.8466 22.7975ZM22.8483 29.3178C27.6356 30.6096 31.6319 27.2992 32.8466 22.7975L31.1192 22.3314C30.0815 26.1772 26.8746 28.5511 23.3144 27.5904L22.8483 29.3178ZM17.3236 24.8064C18.3986 26.9488 20.3499 28.6437 22.8483 29.3178L23.3144 27.5904C21.3286 27.0546 19.7788 25.71 18.9227 24.004L17.3236 24.8064Z" fill="#3D332E" mask="url(#path-6-inside-2_2152:7858)"/>
<path d="M44.0604 1.6227C44.6962 3.1016 45.879 4.28441 47.3579 4.92017C45.879 5.55593 44.6962 6.73873 44.0604 8.21764C43.4247 6.73873 42.2419 5.55593 40.763 4.92017C42.2419 4.28441 43.4247 3.1016 44.0604 1.6227Z" fill="#3D332E" stroke="#3D332E" stroke-width="0.894576"/>
<path d="M86.7421 29.4904C85.7779 30.9711 84.6416 32.0386 82.4377 32.0386C79.924 32.0386 77.7546 30.2136 77.5824 27.7687H90.5644C90.5644 27.6654 90.5988 27.2177 90.5988 26.5635C90.5988 21.536 87.1209 17.7137 82.1967 17.7137C77.307 17.7137 73.6224 21.5016 73.6224 26.5635C73.6224 31.7631 77.2725 35.4132 82.4033 35.4132C85.9501 35.4132 88.6016 33.6915 90.0134 31.04L86.7421 29.4904ZM77.6169 24.8762C77.8579 22.9478 79.7863 20.985 82.1278 20.985C84.5383 20.985 86.3977 22.6379 86.6388 24.8762H77.6169ZM98.2901 26.047C98.2901 23.1889 99.7364 21.3638 101.906 21.3638C104.006 21.3638 105.143 22.9478 105.143 25.5304V35H109.137V25.8748C109.172 23.12 110.618 21.3638 112.753 21.3638C114.853 21.3638 115.99 22.9134 115.99 25.3927V35H119.984V24.6351C119.984 20.4341 117.746 17.7137 113.855 17.7137C111.031 17.7137 109.206 19.2289 108.242 20.8473C107.312 18.8845 105.521 17.7137 103.111 17.7137C100.838 17.7137 99.1854 18.7468 98.2901 20.3652V18.127H94.2957V35H98.2901V26.047ZM124.729 18.127V42.1624H128.689V32.6929C129.928 34.4146 132.063 35.4132 134.405 35.4132C139.054 35.4132 142.635 31.5221 142.635 26.5635C142.635 21.536 139.054 17.7137 134.405 17.7137C132.063 17.7137 129.928 18.8157 128.689 20.5374V18.127H124.729ZM138.64 26.5635C138.64 29.4904 136.437 31.7976 133.579 31.7976C130.72 31.7976 128.517 29.4904 128.517 26.5635C128.517 23.6365 130.72 21.3294 133.579 21.3294C136.437 21.3294 138.64 23.6365 138.64 26.5635ZM159.465 18.127V20.4341C158.225 18.6779 156.09 17.7137 153.748 17.7137C149.1 17.7137 145.519 21.5704 145.519 26.5635C145.519 31.5565 149.1 35.4132 153.748 35.4132C156.09 35.4132 158.225 34.3113 159.465 32.5551V35H163.39V18.127H159.465ZM149.513 26.5635C149.513 23.6365 151.717 21.3294 154.575 21.3294C157.433 21.3294 159.637 23.6365 159.637 26.5635C159.637 29.4904 157.433 31.7976 154.575 31.7976C151.717 31.7976 149.513 29.4904 149.513 26.5635ZM169.101 13.1339V18.127H166.587V21.5016H169.101V29.8003C169.101 33.3127 171.132 35.4132 174.507 35.4132C175.884 35.4132 176.883 35.1377 177.537 34.7934V31.2466C177.021 31.591 176.298 31.7631 175.678 31.7631C173.887 31.7631 173.061 30.9367 173.061 29.0772V21.5016H177.537V18.127H173.061V13.1339H169.101ZM185.05 26.1158C185.05 23.2233 186.634 21.3983 189.01 21.3983C191.42 21.3983 192.763 22.9823 192.763 25.5993V35H196.757V24.8417C196.757 20.4685 194.313 17.7137 190.215 17.7137C187.839 17.7137 186.083 18.7812 185.05 20.3652V10.8956H181.055V35H185.05V26.1158ZM205.495 35V18.127H201.501V35H205.495ZM205.943 13.2028C205.943 11.8598 204.875 10.7235 203.464 10.7235C202.121 10.7235 201.019 11.8254 201.019 13.2028C201.019 14.5457 202.121 15.6477 203.464 15.6477C204.875 15.6477 205.943 14.5113 205.943 13.2028ZM222.464 29.4904C221.499 30.9711 220.363 32.0386 218.159 32.0386C215.645 32.0386 213.476 30.2136 213.304 27.7687H226.286C226.286 27.6654 226.32 27.2177 226.32 26.5635C226.32 21.536 222.842 17.7137 217.918 17.7137C213.028 17.7137 209.344 21.5016 209.344 26.5635C209.344 31.7631 212.994 35.4132 218.125 35.4132C221.672 35.4132 224.323 33.6915 225.735 31.04L222.464 29.4904ZM213.338 24.8762C213.579 22.9478 215.508 20.985 217.849 20.985C220.26 20.985 222.119 22.6379 222.36 24.8762H213.338Z" fill="#3D332E"/>
</svg>
